<svg id="kodo" xmlns="http://www.w3.org/2000/svg" viewBox="0 0 40 40"><style>.st0{fill:#ced0d6}.st1{fill:#fff}.st2{fill:#f0f2f5}.st3{fill:#a5c5e6}</style><path id="bg" class="st0" d="M5 6h28c1.7 0 3 1.3 3 3v24c0 1.7-1.3 3-3 3H5c-1.7 0-3-1.3-3-3V9c0-1.7 1.3-3 3-3zm0 2h28c.6 0 1 .4 1 1v24c0 .6-.4 1-1 1H5c-.6 0-1-.4-1-1V9c0-.6.4-1 1-1zm16 2H5c-.4 0-.7-.2-.9-.5-.1-.3-.1-.7.1-1l3.3-6c.1-.3.4-.5.8-.5h9.4c.4 0 .7.2.9.5l3.3 6c.2.3.2.7 0 1-.3.3-.6.5-.9.5zM6.7 8h12.6l-2.2-4H8.9L6.7 8z"/><path id="color" class="st1" d="M4 12h30v21c0 .6-.4 1-1 1H5c-.6 0-1-.4-1-1V12z"/><path id="color-gary" class="st2" d="M5 8h28c.6 0 1 .4 1 1v1H4V9c0-.6.4-1 1-1zm1.7 0h12.6l-2.2-4H8.9L6.7 8z"/><path class="st3" d="M10 16h18v14H10z"/><path class="st1" d="M12 18h14v10H12z"/><path class="st3" d="M14 20h10v2H14zM14 24h10v2H14z"/></svg>